<?xml version="1.0" encoding="UTF-8" standalone="no"?>
<!-- Created with Inkscape (http://www.inkscape.org/) -->

<svg
   width="500mm"
   height="500mm"
   viewBox="0 0 500 500"
   version="1.1"
   id="svg1"
   inkscape:version="1.3 (0e150ed6c4, 2023-07-21)"
   sodipodi:docname="carrefour.svg"
   xmlns:inkscape="http://www.inkscape.org/namespaces/inkscape"
   xmlns:sodipodi="http://sodipodi.sourceforge.net/DTD/sodipodi-0.dtd"
   xmlns="http://www.w3.org/2000/svg"
   xmlns:svg="http://www.w3.org/2000/svg">
  <sodipodi:namedview
     id="namedview1"
     pagecolor="#ffffff"
     bordercolor="#000000"
     borderopacity="0.25"
     inkscape:showpageshadow="2"
     inkscape:pageopacity="0.0"
     inkscape:pagecheckerboard="false"
     inkscape:deskcolor="#d1d1d1"
     inkscape:document-units="mm"
     labelstyle="default"
     inkscape:zoom="0.1917561"
     inkscape:cx="599.72016"
     inkscape:cy="805.711"
     inkscape:window-width="958"
     inkscape:window-height="1041"
     inkscape:window-x="953"
     inkscape:window-y="0"
     inkscape:window-maximized="0"
     inkscape:current-layer="layer2" />
  <defs
     id="defs1">
    <inkscape:path-effect
       effect="slice"
       start_point="1961.2958,1429.6926"
       end_point="614.89577,1429.6926"
       center_point="1288.0958,1429.6926"
       id="path-effect20"
       is_visible="true"
       lpeversion="1.2"
       lpesatellites=""
       allow_transforms="true" />
    <rect
       x="5.2149579"
       y="26.074789"
       width="2565.7593"
       height="2873.4418"
       id="rect13" />
    <inkscape:path-effect
       effect="slice"
       start_point="2384.7969,1514.2325"
       end_point="1284.4063,1514.2325"
       center_point="1834.6016,1514.2325"
       id="path-effect2"
       is_visible="true"
       lpeversion="1.2"
       lpesatellites=""
       allow_transforms="true" />
    <rect
       x="169.62648"
       y="110.62596"
       width="3281.9036"
       height="3053.2766"
       id="rect2" />
    <inkscape:path-effect
       effect="slice"
       start_point="320,130"
       end_point="100,-90"
       center_point="210,20"
       id="path-effect1"
       is_visible="true"
       lpeversion="1.2"
       lpesatellites="#path1"
       allow_transforms="true" />
  </defs>
  <g
     inkscape:label="Cuadrado"
     inkscape:groupmode="layer"
     id="layer1">
    <path
       id="rect1"
       style="fill:#3236a7;fill-opacity:1;stroke:none;stroke-width:0.65126;stroke-opacity:1"
       inkscape:label="azul"
       d="m 229.57979,69.822611 c -1.85963,1.340586 -3.9621,2.623651 -6.5164,3.759978 -3.31799,1.47604 -6.63899,2.943843 -9.94358,4.445723 -1.63631,1.86239 -3.8713,3.309545 -6.69158,4.635376 -0.91756,0.431378 -1.87579,0.774433 -2.81379,1.161686 -2.27411,0.890619 -4.54659,1.785211 -6.8187,2.680457 -1.28179,0.798057 -2.55259,1.611826 -3.79873,2.460832 -0.30956,0.214082 -0.62489,0.418171 -0.9338,0.633036 -4.6566,8.140601 -12.59473,10.18613 -18.60145,6.685897 -1.08846,-0.01208 -2.16254,-0.126087 -3.16776,-0.494027 -2.94166,-1.076672 -5.28132,-3.289232 -7.81348,-5.138704 l -34.4842,33.312695 V 375.2913 c 0.47003,-0.052 0.94916,-0.0854 1.44436,-0.0816 4.06505,0.031 8.93275,1.99147 13.85342,6.67194 0.6094,0.57965 0.24536,0.23557 1.09554,1.02888 1.39745,1.35772 2.76641,2.74295 4.13153,4.13308 0.76996,0.74793 1.50991,1.54802 2.37763,2.18126 5.61301,4.09624 8.38969,8.62192 9.04958,12.65711 1.36294,1.26026 2.70413,2.76979 3.98477,4.61832 0.0435,0.0628 0.0867,0.1253 0.13022,0.1881 0.0797,0.10444 0.19226,0.19296 0.23306,0.31781 0.004,0.011 -0.0227,0.004 -0.0341,0.006 -0.0653,-0.0372 -0.13056,-0.0744 -0.19586,-0.11163 0.0895,0.0847 0.65304,0.47441 0.75034,0.54261 1.91974,1.25584 4.05819,2.19575 5.68183,3.87005 0.81021,0.83548 1.49341,1.55084 2.16989,2.26084 0.62158,-0.0228 1.22108,-0.0953 1.86139,-0.0744 3.26136,0.10638 6.75695,0.78357 10.45931,2.15955 l 1.83503,0.68213 c 2.06871,0.88346 1.68996,0.68711 3.40857,1.52394 0.65834,0.32064 1.34404,0.59613 1.96319,0.98444 0.0605,0.0379 -0.14075,-0.026 -0.21136,-0.0388 0.0685,0.0399 0.13665,0.0795 0.20516,0.11937 1.67512,0.55801 3.36156,1.07717 5.07721,1.49035 0.49859,0.26335 2.31424,-0.11096 2.35386,-0.11524 2.50671,-0.2783 5.01219,-0.57024 7.52357,-0.80667 6.08642,-0.52691 12.19654,-1.07805 18.3131,-0.83871 5.56477,0.24593 11.10618,0.78109 16.63154,1.47175 6.57161,0.7516 13.15147,1.45166 19.73575,2.08514 5.62966,0.43122 11.26908,0.7145 16.90026,1.12603 4.05307,0.22722 8.1217,-0.14226 12.17135,0.24805 2.43526,0.25751 4.82351,0.58244 7.23418,1.00097 0.54162,0.094 1.08432,0.18212 1.62419,0.28526 0.14491,0.0277 0.43806,0.0539 0.47697,0.0977 0.2446,-0.0214 0.43214,-0.0541 0.6718,-0.061 3.72464,-0.10802 8.39149,-0.0862 11.67112,1.87482 1.60167,0.95772 3.03223,2.1443 4.41988,3.38842 L 498.41351,254.92087 313.67026,76.452181 c -1.35694,0.494125 -2.72242,0.961845 -4.12016,1.326534 -0.9106,0.237587 -1.88378,0.07834 -2.82619,0.06718 -4.29562,-0.05083 -8.56857,-0.671348 -12.84882,-0.952913 -2.69014,-0.280774 -8.46892,-0.705271 -11.20294,-2.442228 -2.13561,-0.516381 -3.74789,-1.383494 -4.89221,-3.086634 -0.45006,-0.03647 -1.10739,-0.01833 -1.5012,-0.0739 -1.32979,0.829135 -2.71229,1.573542 -4.14961,2.210201 -12.46736,5.522331 -21.88748,2.823251 -25.82478,-2.845304 -2.86101,0.443621 -5.73967,0.70937 -8.63565,0.473356 -3.04032,-0.247776 -5.73295,-0.696197 -8.08891,-1.305864 z" />
    <path
       transform="rotate(45)"
       id="path1"
       d="M 177.37305,-12.626953 V 176.18164 h 188.80859 z"
       style="display:inline;fill:#b10001;fill-opacity:1;stroke:none;stroke-width:0.652574;stroke-opacity:1"
       inkscape:label="rojo" />
  </g>
  <g
     inkscape:groupmode="layer"
     id="layer2"
     inkscape:label="Letra">
    <path
       id="path20"
       d="m 615.00159,1429.6926 c -0.0701,5.9733 -0.10511,11.9736 -0.10511,18.0008 0,252.7997 64.00013,455.1993 192,607.1992 129.59989,151.9998 302.39862,228 518.39842,228 187.1998,0 340.0005,-54.3993 458.4004,-163.1992 118.3999,-108.7999 177.5996,-248.8002 177.5996,-420 0,-73.6 -32.7985,-110.4004 -98.3984,-110.4004 -60.8,0 -91.2012,36.8004 -91.2012,110.4004 0,78.3999 -9.5988,140.7992 -28.7988,187.1992 -28.8,70.3999 -79.2013,127.2004 -151.2012,170.4004 -70.3999,43.1999 -150.4001,64.7988 -240,64.7988 -164.7998,0 -293.6005,-60.7986 -386.40038,-182.3984 -90.69993,-122.5245 -136.29749,-292.5261 -136.79471,-510.0008 z"
       style="font-size:2400px;font-family:'American Typewriter';-inkscape-font-specification:'American Typewriter';text-align:center;white-space:pre;display:inline;fill:#ffffff;stroke-width:3.49984"
       transform="matrix(0.22631473,0,0,0.22631473,-48.739933,-73.560492)" />
    <path
       d="m 251.19397,63.72841 c 42.36599,0 76.94693,12.31121 103.74251,36.93418 26.79558,24.62296 40.19341,56.30712 40.19341,95.05208 0,16.65672 -7.42274,24.98555 -22.26892,24.98555 -13.75992,0 -20.64009,-8.32883 -20.64009,-24.98555 0,-17.74301 -2.17219,-31.8649 -6.51743,-42.36589 -6.51784,-15.93249 -17.9245,-28.78726 -34.2191,-38.56406 -15.93249,-9.77675 -34.03782,-14.66473 -54.31555,-14.66473 -37.29655,0 -66.44647,13.75937 -87.44841,41.27913 -20.52667,27.72904 -30.84578,66.20323 -30.95831,115.42086 H 90.444099 c -0.0159,-1.35185 -0.0238,-2.7096 -0.0238,-4.07365 0,-57.21217 14.484441,-103.01874 43.452641,-137.41849 29.3303,-34.39972 68.43716,-51.59943 117.321,-51.59943 z"
       style="font-size:2400px;font-family:'American Typewriter';-inkscape-font-specification:'American Typewriter';text-align:center;white-space:pre;display:inline;fill:#ffffff;stroke-width:0.792065"
       id="path22" />
    <circle
       style="fill:#ffffff;fill-opacity:1;stroke:none;stroke-width:0.874831;stroke-opacity:1"
       id="path2-4"
       cx="351.99005"
       cy="315.0321"
       inkscape:label="bola2"
       r="44.243477" />
    <circle
       style="fill:#ffffff;fill-opacity:1;stroke:none;stroke-width:0.874831;stroke-opacity:1"
       id="path2-4-6"
       cx="351.99005"
       cy="192.16391"
       inkscape:label="bola2"
       r="44.243477" />
  </g>
</svg>
